<svg width="817" height="90" viewBox="0 0 817 90" fill="none" xmlns="http://www.w3.org/2000/svg">
<path d="M13.0133 76.945C11.6133 76.945 10.2833 76.84 9.02326 76.63C3.21326 75.86 0.308262 71.73 0.308262 64.24C0.308262 56.89 3.03826 48.77 8.49826 39.88C11.8583 34.28 16.6883 28.82 22.9883 23.5C29.0083 18.32 35.0983 14.33 41.2583 11.53C40.9783 11.25 40.8383 10.97 40.8383 10.69C40.8383 10.2 41.3983 9.85 42.5183 9.64C43.6383 9.43 45.0733 9.395 46.8233 9.535C48.8533 8.835 51.5483 8.485 54.9083 8.485C60.1583 8.485 62.7833 9.465 62.7833 11.425C62.6433 12.405 61.9433 12.615 60.6833 12.055C58.3733 11.215 56.2383 10.83 54.2783 10.9C56.4483 11.6 58.4433 12.825 60.2633 14.575C64.1833 18.285 66.1433 23.01 66.1433 28.75C66.1433 34 64.5683 39.53 61.4183 45.34C58.4083 51.08 54.3133 56.225 49.1333 60.775C37.0233 71.555 24.9833 76.945 13.0133 76.945ZM10.2833 74.32C20.2233 75.16 31.5283 70.015 44.1983 58.885C55.1183 49.295 60.5783 38.865 60.5783 27.595C60.5783 22.275 59.4583 18.705 57.2183 16.885C53.7883 14.225 50.5683 12.615 47.5583 12.055C41.0483 14.085 34.1883 18.53 26.9783 25.39C21.6583 30.57 17.2483 35.855 13.7483 41.245C8.00826 50.135 5.13826 58.36 5.13826 65.92C5.13826 71.24 6.85326 74.04 10.2833 74.32ZM71.9363 77.575C70.9563 77.575 70.3963 77.155 70.2563 76.315C70.1163 75.545 70.0463 74.74 70.0463 73.9C70.0463 66.48 74.7013 57.555 84.0113 47.125C93.6013 36.275 104.941 25.67 118.031 15.31C112.291 14.54 107.566 13.98 103.856 13.63C100.216 13.21 97.5563 13 95.8763 13C89.8563 13 85.3063 13.63 82.2263 14.89C78.2363 16.64 75.4713 19.825 73.9313 24.445C73.3713 25.845 72.4263 26.545 71.0963 26.545C70.3263 26.545 69.6613 26.265 69.1013 25.705C68.6113 25.145 68.5063 24.445 68.7863 23.605L68.8913 22.975C69.0313 22.555 69.1013 22.345 69.1013 22.345L70.9913 18.565C71.8313 16.815 72.1813 15.555 72.0413 14.785C71.9713 14.085 72.0763 13.28 72.3563 12.37C72.5663 11.88 72.8113 11.67 73.0913 11.74C73.6513 12.16 73.9313 13.245 73.9313 14.995C78.9013 10.585 85.4813 8.37999 93.6713 8.37999C97.2413 8.37999 101.791 9.045 107.321 10.375C110.681 11.145 113.481 11.775 115.721 12.265C118.031 12.685 119.746 12.965 120.866 13.105L126.221 9.115C126.991 8.555 128.006 9.01 129.266 10.48C130.666 11.88 130.946 12.86 130.106 13.42C121.776 19.44 114.041 25.39 106.901 31.27C99.8313 37.15 93.3913 42.995 87.5813 48.805C84.1513 52.235 81.0363 56.225 78.2363 60.775C74.7363 66.375 72.9863 70.96 72.9863 74.53C72.9863 74.81 72.9863 75.125 72.9863 75.475C73.0563 75.755 73.1263 76.035 73.1963 76.315C73.3363 77.155 72.9163 77.575 71.9363 77.575ZM137.077 76.525C134.977 76.525 133.192 75.965 131.722 74.845C130.252 73.655 129.412 72.22 129.202 70.54C128.922 68.3 129.237 66.06 130.147 63.82C131.127 61.51 132.422 59.305 134.032 57.205C135.712 55.105 137.497 53.145 139.387 51.325C146.807 43.905 153.492 40.195 159.442 40.195C161.472 40.195 162.837 40.72 163.537 41.77C163.817 42.12 164.132 42.925 164.482 44.185C172.322 31.445 177.782 25.075 180.862 25.075C181.562 25.075 182.297 25.25 183.067 25.6C183.837 25.95 184.222 26.405 184.222 26.965C184.222 27.315 184.047 27.77 183.697 28.33C181.597 30.92 179.497 33.51 177.397 36.1C175.297 38.62 173.232 41.175 171.202 43.765C167.772 48.105 165.007 51.885 162.907 55.105C160.807 58.325 159.302 61.055 158.392 63.295C158.112 63.995 157.832 64.87 157.552 65.92C157.342 66.9 157.237 67.915 157.237 68.965C157.237 70.295 157.517 71.45 158.077 72.43C158.637 73.41 159.652 73.9 161.122 73.9C163.432 73.9 166.267 72.78 169.627 70.54C172.987 68.3 176.907 64.625 181.387 59.515C181.667 59.235 181.912 58.99 182.122 58.78C182.402 58.57 182.682 58.43 182.962 58.36C183.592 58.22 183.907 58.36 183.907 58.78C183.907 58.99 183.697 59.375 183.277 59.935C181.107 62.525 178.692 65.08 176.032 67.6C173.372 70.12 170.642 72.22 167.842 73.9C165.112 75.51 162.557 76.315 160.177 76.315C157.797 76.315 156.117 75.51 155.137 73.9C154.157 72.29 153.667 70.47 153.667 68.44C153.667 66.34 154.052 64.415 154.822 62.665L146.317 71.17C144.427 73.06 142.677 74.425 141.067 75.265C139.527 76.105 138.197 76.525 137.077 76.525ZM136.132 74.215C139.142 74.215 144.147 70.085 151.147 61.825C151.497 61.405 152.722 59.865 154.822 57.205C156.922 54.475 159.897 50.52 163.747 45.34C163.257 44.5 162.417 44.08 161.227 44.08C156.887 44.08 151.077 47.51 143.797 54.37C136.937 60.74 133.507 66.095 133.507 70.435C133.507 72.955 134.382 74.215 136.132 74.215ZM184.41 77.365C182.17 77.365 180.14 76.665 178.32 75.265C176.5 73.795 175.59 71.87 175.59 69.49C175.59 64.52 178.635 58.85 184.725 52.48C190.955 46.04 196.52 42.82 201.42 42.82C203.03 42.82 204.325 43.275 205.305 44.185C206.355 45.025 206.88 46.075 206.88 47.335C206.88 51.255 203.765 55.105 197.535 58.885C192.005 62.245 187.35 63.925 183.57 63.925C183.01 63.925 182.52 63.855 182.1 63.715C181.05 65.605 180.525 67.6 180.525 69.7C180.525 73.34 182.24 75.16 185.67 75.16C189.17 75.16 193.685 72.815 199.215 68.125C203.485 64.695 207.125 61.055 210.135 57.205C210.765 56.365 211.325 55.945 211.815 55.945C212.235 55.945 212.445 56.155 212.445 56.575C212.445 56.995 212.165 57.59 211.605 58.36C209.645 60.95 207.545 63.33 205.305 65.5C203.065 67.67 200.65 69.665 198.06 71.485C192.67 75.405 188.12 77.365 184.41 77.365ZM185.04 61.615C187.7 61.615 191.165 60.285 195.435 57.625C196.835 56.645 198.2 55.56 199.53 54.37C200.93 53.11 202.05 51.85 202.89 50.59C203.8 49.33 204.255 48.21 204.255 47.23C204.255 46.32 203.52 45.865 202.05 45.865C199.95 45.865 197.01 47.44 193.23 50.59C191.41 52.13 189.66 53.81 187.98 55.63C186.3 57.45 184.865 59.375 183.675 61.405C184.095 61.545 184.55 61.615 185.04 61.615ZM250.148 89.65C244.338 89.65 239.683 88.145 236.183 85.135C232.683 82.195 230.933 78.135 230.933 72.955C230.933 69.455 231.703 66.27 233.243 63.4C235.203 59.55 237.863 56.05 241.223 52.9C244.583 49.68 248.223 47.09 252.143 45.13C256.133 43.17 259.983 42.19 263.693 42.19C268.453 42.19 272.163 43.31 274.823 45.55C277.553 47.79 278.918 50.73 278.918 54.37C278.918 56.33 278.498 58.22 277.658 60.04C276.888 61.86 275.908 63.4 274.718 64.66C272.968 66.62 271.568 67.6 270.518 67.6C270.238 67.6 270.098 67.46 270.098 67.18C270.098 66.97 270.203 66.655 270.413 66.235C272.933 62.525 274.193 58.955 274.193 55.525C274.193 52.445 273.213 49.89 271.253 47.86C269.293 45.83 266.668 44.815 263.378 44.815C260.228 44.815 257.078 45.76 253.928 47.65C250.778 49.47 247.873 51.885 245.213 54.895C242.623 57.835 240.488 61.02 238.808 64.45C237.058 67.88 236.183 71.205 236.183 74.425C236.183 78.695 237.548 81.915 240.278 84.085C243.078 86.325 246.718 87.445 251.198 87.445C269.048 87.445 287.668 71.835 307.058 40.615C318.678 21.995 324.628 10.585 324.908 6.385L318.713 6.07C317.033 6 315.038 6.21 312.728 6.7C310.418 7.12 308.108 7.785 305.798 8.695C303.488 9.535 301.388 10.55 299.498 11.74C297.678 12.86 296.383 14.12 295.613 15.52C294.983 16.57 294.668 17.585 294.668 18.565C294.668 20.105 295.333 21.645 296.663 23.185C297.993 24.725 298.658 25.635 298.658 25.915C298.658 26.265 298.238 26.51 297.398 26.65C297.188 26.72 296.908 26.755 296.558 26.755C295.088 26.755 293.688 26.09 292.358 24.76C290.818 23.22 290.048 21.365 290.048 19.195C290.048 17.235 290.678 15.415 291.938 13.735C293.688 11.355 296.103 9.465 299.183 8.065C302.333 6.665 305.693 5.685 309.263 5.125C312.903 4.495 316.333 4.215 319.553 4.285C320.183 4.285 321.898 4.39 324.698 4.6C324.558 3.69 324.908 2.85 325.748 2.07999C326.658 1.24 327.673 0.819998 328.793 0.819998C330.893 0.819998 331.908 2.325 331.838 5.335C339.398 6.665 343.388 8.695 343.808 11.425C343.878 11.705 343.913 11.985 343.913 12.265C343.913 12.545 343.913 12.79 343.913 13C343.913 14.4 343.528 15.1 342.758 15.1C342.128 15.1 341.813 14.645 341.813 13.735C341.813 13.595 341.813 13.42 341.813 13.21C341.813 13 341.848 12.79 341.918 12.58C340.168 9.99 336.703 8.17 331.523 7.12C330.263 12.79 323.683 25.11 311.783 44.08C308.143 49.89 303.943 55.525 299.183 60.985C294.423 66.375 289.348 71.24 283.958 75.58C278.568 79.92 273.003 83.35 267.263 85.87C261.523 88.39 255.818 89.65 250.148 89.65ZM320.211 76.525C318.531 76.525 316.851 75.93 315.171 74.74C313.491 73.55 312.546 72.15 312.336 70.54C311.636 65.15 315.031 58.745 322.521 51.325C329.941 43.905 336.626 40.195 342.576 40.195C344.186 40.195 345.446 40.58 346.356 41.35C346.846 41.84 347.196 42.505 347.406 43.345C347.686 44.185 347.896 44.605 348.036 44.605C348.316 44.605 348.561 44.57 348.771 44.5C348.981 44.36 349.226 44.29 349.506 44.29C350.346 44.29 351.081 44.605 351.711 45.235C352.341 45.865 352.691 46.425 352.761 46.915C352.831 47.055 350.591 50.52 346.041 57.31C341.491 63.96 339.426 68.475 339.846 70.855C340.196 72.465 340.966 73.27 342.156 73.27C345.796 73.27 352.446 67.25 362.106 55.21C362.316 54.93 362.526 54.79 362.736 54.79C363.086 54.79 363.261 55.035 363.261 55.525C363.261 56.085 362.946 56.785 362.316 57.625C353.426 69.595 346.601 75.58 341.841 75.58C341.211 75.58 340.616 75.475 340.056 75.265C336.976 74.075 335.436 71.765 335.436 68.335C335.436 67.145 335.576 65.955 335.856 64.765L329.346 71.065C327.386 73.025 325.601 74.425 323.991 75.265C322.451 76.105 321.191 76.525 320.211 76.525ZM319.266 74.215C323.326 74.215 328.856 69.77 335.856 60.88L346.986 45.55C346.426 44.57 345.516 44.08 344.256 44.08C339.986 44.08 334.211 47.51 326.931 54.37C319.371 61.37 315.976 67.145 316.746 71.695C317.096 73.375 317.936 74.215 319.266 74.215ZM383.223 76.21C381.333 76.21 380.003 75.685 379.233 74.635C378.463 73.515 378.078 72.15 378.078 70.54C378.078 66.48 379.478 62.14 382.278 57.52L388.998 46.6C384.238 50.1 379.513 54.475 374.823 59.725C373.563 61.125 372.128 62.77 370.518 64.66C368.978 66.55 367.263 68.72 365.373 71.17C362.853 74.46 361.348 76.105 360.858 76.105C359.878 76.105 359.073 75.685 358.443 74.845C357.813 73.935 357.498 73.13 357.498 72.43C357.498 71.87 357.673 70.855 358.023 69.385C358.373 67.845 358.793 66.515 359.283 65.395C359.773 64.205 360.263 63.05 360.753 61.93C361.313 60.74 361.838 59.585 362.328 58.465L356.028 65.08C355.888 65.22 355.468 65.64 354.768 66.34C354.068 67.04 353.508 67.39 353.088 67.39C352.738 67.39 352.563 67.145 352.563 66.655C352.563 66.515 352.633 66.34 352.773 66.13C352.843 65.85 353.053 65.535 353.403 65.185C354.453 64.135 355.538 63.015 356.658 61.825C357.778 60.635 358.933 59.27 360.123 57.73C360.753 56.96 361.698 55.805 362.958 54.265C364.218 52.655 365.583 50.94 367.053 49.12C368.593 47.3 370.028 45.62 371.358 44.08C371.708 43.59 372.093 43.275 372.513 43.135C372.933 42.925 373.213 42.82 373.353 42.82C375.243 42.82 376.188 43.555 376.188 45.025C376.188 45.445 376.083 45.865 375.873 46.285C369.573 54.965 365.793 61.58 364.533 66.13C372.653 58.01 379.163 51.92 384.063 47.86C389.033 43.73 392.568 41.665 394.668 41.665C395.788 41.665 396.628 41.84 397.188 42.19C397.818 42.54 398.133 43.205 398.133 44.185C398.133 44.535 398.098 44.815 398.028 45.025C397.818 45.515 396.383 47.475 393.723 50.905C392.113 52.865 390.678 54.65 389.418 56.26C388.228 57.87 387.248 59.27 386.478 60.46C385.218 62.42 384.273 64.275 383.643 66.025C383.013 67.705 382.698 69.14 382.698 70.33C382.698 70.82 382.768 71.415 382.908 72.115C383.048 72.815 383.468 73.165 384.168 73.165C385.778 73.165 388.298 71.765 391.728 68.965C393.338 67.565 394.843 66.165 396.243 64.765C397.643 63.295 398.973 61.86 400.233 60.46C400.513 60.18 400.968 59.655 401.598 58.885C402.228 58.045 402.613 57.625 402.753 57.625C403.033 57.625 403.173 57.905 403.173 58.465C403.173 58.745 402.998 59.235 402.648 59.935C402.368 60.565 402.053 61.055 401.703 61.405C400.933 62.315 399.778 63.575 398.238 65.185C396.768 66.795 395.088 68.44 393.198 70.12C391.378 71.8 389.593 73.235 387.843 74.425C386.093 75.615 384.553 76.21 383.223 76.21ZM404.151 77.365C401.911 77.365 399.881 76.665 398.061 75.265C396.241 73.795 395.331 71.87 395.331 69.49C395.331 64.52 398.376 58.85 404.466 52.48C410.696 46.04 416.261 42.82 421.161 42.82C422.771 42.82 424.066 43.275 425.046 44.185C426.096 45.025 426.621 46.075 426.621 47.335C426.621 51.255 423.506 55.105 417.276 58.885C411.746 62.245 407.091 63.925 403.311 63.925C402.751 63.925 402.261 63.855 401.841 63.715C400.791 65.605 400.266 67.6 400.266 69.7C400.266 73.34 401.981 75.16 405.411 75.16C408.911 75.16 413.426 72.815 418.956 68.125C423.226 64.695 426.866 61.055 429.876 57.205C430.506 56.365 431.066 55.945 431.556 55.945C431.976 55.945 432.186 56.155 432.186 56.575C432.186 56.995 431.906 57.59 431.346 58.36C429.386 60.95 427.286 63.33 425.046 65.5C422.806 67.67 420.391 69.665 417.801 71.485C412.411 75.405 407.861 77.365 404.151 77.365ZM404.781 61.615C407.441 61.615 410.906 60.285 415.176 57.625C416.576 56.645 417.941 55.56 419.271 54.37C420.671 53.11 421.791 51.85 422.631 50.59C423.541 49.33 423.996 48.21 423.996 47.23C423.996 46.32 423.261 45.865 421.791 45.865C419.691 45.865 416.751 47.44 412.971 50.59C411.151 52.13 409.401 53.81 407.721 55.63C406.041 57.45 404.606 59.375 403.416 61.405C403.836 61.545 404.291 61.615 404.781 61.615ZM448.969 39.88C447.779 39.88 446.729 39.495 445.819 38.725C444.979 37.955 444.559 37.08 444.559 36.1C444.559 34.14 445.889 33.16 448.549 33.16C449.529 33.16 450.509 33.51 451.489 34.21C452.469 34.84 452.959 35.645 452.959 36.625C452.959 37.465 452.504 38.235 451.594 38.935C450.684 39.565 449.809 39.88 448.969 39.88ZM429.544 77.155C428.004 77.155 426.744 76.665 425.764 75.685C424.714 74.635 424.189 72.815 424.189 70.225C424.189 68.755 424.539 67.075 425.239 65.185C425.869 63.225 426.674 61.265 427.654 59.305C428.704 57.345 429.719 55.595 430.699 54.055C434.619 47.685 437.839 44.465 440.359 44.395C440.989 44.395 441.759 44.675 442.669 45.235C443.579 45.725 444.034 46.285 444.034 46.915C444.034 46.915 441.374 50.345 436.054 57.205C430.804 63.995 428.179 68.825 428.179 71.695C428.179 73.935 429.054 75.055 430.804 75.055C431.924 75.055 433.359 74.6 435.109 73.69C436.929 72.71 438.819 71.485 440.779 70.015C442.739 68.545 444.594 66.97 446.344 65.29C448.164 63.61 449.634 62.07 450.754 60.67C451.454 59.76 452.049 59.13 452.539 58.78C453.099 58.43 453.449 58.255 453.589 58.255C453.869 58.255 454.009 58.465 454.009 58.885C454.009 59.235 453.589 59.935 452.749 60.985C451.979 62.035 450.894 63.26 449.494 64.66C447.814 66.34 445.959 68.16 443.929 70.12C441.899 72.08 439.694 73.76 437.314 75.16C434.934 76.49 432.344 77.155 429.544 77.155ZM470.871 76.525C467.861 76.525 465.796 75.755 464.676 74.215C463.556 72.605 462.996 70.47 462.996 67.81C462.996 64.87 463.906 61.37 465.726 57.31C466.426 55.7 467.161 54.265 467.931 53.005C468.701 51.675 469.506 50.45 470.346 49.33C470.066 49.4 469.821 49.435 469.611 49.435C469.401 49.435 469.191 49.435 468.981 49.435C467.301 49.435 465.901 48.245 464.781 45.865L457.011 55.945C452.881 61.335 450.361 64.03 449.451 64.03C449.101 64.03 448.926 63.89 448.926 63.61C448.926 63.26 449.101 62.805 449.451 62.245C449.661 61.825 450.081 61.265 450.711 60.565C453.371 57.485 455.821 54.44 458.061 51.43C460.301 48.42 462.156 45.48 463.626 42.61C465.236 36.52 467.266 33.475 469.716 33.475C471.326 33.475 472.131 34.21 472.131 35.68C472.131 37.01 471.256 38.76 469.506 40.93C467.826 43.1 466.986 44.22 466.986 44.29C466.986 45.76 468.071 46.495 470.241 46.495C471.501 46.495 472.901 46.04 474.441 45.13L477.171 43.45C477.311 43.38 477.521 43.345 477.801 43.345C478.641 43.345 479.376 43.695 480.006 44.395C480.636 45.095 480.846 45.725 480.636 46.285L473.391 55.42C468.911 61.16 466.671 65.78 466.671 69.28C466.671 72.43 468.211 74.005 471.291 74.005C473.391 74.005 475.631 73.375 478.011 72.115C480.461 70.855 482.806 69.315 485.046 67.495C487.356 65.605 489.281 63.785 490.821 62.035L493.341 59.095C493.481 58.955 493.656 58.78 493.866 58.57C494.076 58.36 494.251 58.255 494.391 58.255C494.881 58.255 495.126 58.5 495.126 58.99C495.126 59.13 495.056 59.375 494.916 59.725C494.776 60.075 494.531 60.46 494.181 60.88L490.821 64.66C489.211 66.48 487.216 68.335 484.836 70.225C482.526 72.045 480.111 73.55 477.591 74.74C475.141 75.93 472.901 76.525 470.871 76.525ZM495.289 76.21C493.539 76.21 492.174 75.405 491.194 73.795C490.214 72.115 489.724 70.505 489.724 68.965C489.724 64.765 492.769 58.885 498.859 51.325C505.019 43.695 509.989 39.88 513.769 39.88C517.339 39.88 519.124 41.77 519.124 45.55C519.124 46.11 519.054 46.705 518.914 47.335C518.844 47.965 518.739 48.63 518.599 49.33C518.739 49.54 519.089 49.645 519.649 49.645C521.539 49.645 523.779 48.98 526.369 47.65C526.299 48.84 523.534 50.555 518.074 52.795C518.844 55.105 516.534 59.515 511.144 66.025C505.614 72.815 500.889 76.21 496.969 76.21H495.289ZM497.179 73.06C500.189 73.06 504.039 70.295 508.729 64.765C513.279 59.375 515.554 55.49 515.554 53.11C514.434 52.48 513.034 50.87 511.354 48.28C508.974 48.28 505.544 51.15 501.064 56.89C496.654 62.49 494.519 66.795 494.659 69.805C494.729 71.975 495.569 73.06 497.179 73.06ZM595.931 81.145C591.661 81.145 586.586 80.13 580.706 78.1L566.111 72.85C562.821 71.87 560.196 71.38 558.236 71.38C556.906 72.01 555.191 72.745 553.091 73.585C551.061 74.355 548.646 75.23 545.846 76.21C545.006 76.42 544.271 76.525 543.641 76.525C541.961 76.525 541.121 75.895 541.121 74.635C541.121 73.095 542.031 71.625 543.851 70.225C545.531 69.105 547.211 68.405 548.891 68.125C550.291 67.845 551.831 67.67 553.511 67.6C555.261 67.53 557.116 67.565 559.076 67.705C575.456 57.835 586.166 50.905 591.206 46.915C595.966 43.205 599.536 39.88 601.916 36.94C605.206 33.02 607.201 28.82 607.901 24.34C607.971 23.99 608.006 23.675 608.006 23.395C608.076 23.115 608.111 22.835 608.111 22.555C608.111 18.775 605.731 16.885 600.971 16.885C596.351 16.885 590.576 18.46 583.646 21.61C577.346 24.48 572.306 27.595 568.526 30.955C568.246 31.235 567.931 31.375 567.581 31.375C566.881 31.375 566.531 30.955 566.531 30.115C566.531 29.555 566.741 29.135 567.161 28.855C571.991 24.725 578.221 20.945 585.851 17.515C594.251 13.805 601.321 11.95 607.061 11.95C613.501 11.95 616.721 14.435 616.721 19.405C616.721 19.755 616.686 20.14 616.616 20.56C616.616 20.91 616.581 21.295 616.511 21.715C615.671 26.615 612.486 31.865 606.956 37.465C605.416 39.005 603.421 40.825 600.971 42.925C598.521 45.025 595.651 47.405 592.361 50.065C585.011 55.805 574.826 62.105 561.806 68.965C564.886 69.245 570.346 70.715 578.186 73.375C585.676 75.895 591.801 77.155 596.561 77.155C599.291 77.155 601.846 76.63 604.226 75.58C607.306 74.32 608.846 72.465 608.846 70.015C608.846 67.215 606.711 65.045 602.441 63.505C601.881 63.295 601.601 63.015 601.601 62.665C601.601 61.755 602.196 61.475 603.386 61.825C609.196 63.505 612.101 66.305 612.101 70.225C612.101 73.515 610.141 76.28 606.221 78.52C603.001 80.27 599.571 81.145 595.931 81.145ZM625.377 76.945C623.977 76.945 622.647 76.84 621.387 76.63C615.577 75.86 612.672 71.73 612.672 64.24C612.672 56.89 615.402 48.77 620.862 39.88C624.222 34.28 629.052 28.82 635.352 23.5C641.372 18.32 647.462 14.33 653.622 11.53C653.342 11.25 653.202 10.97 653.202 10.69C653.202 10.2 653.762 9.85 654.882 9.64C656.002 9.43 657.437 9.395 659.187 9.535C661.217 8.835 663.912 8.485 667.272 8.485C672.522 8.485 675.147 9.465 675.147 11.425C675.007 12.405 674.307 12.615 673.047 12.055C670.737 11.215 668.602 10.83 666.642 10.9C668.812 11.6 670.807 12.825 672.627 14.575C676.547 18.285 678.507 23.01 678.507 28.75C678.507 34 676.932 39.53 673.782 45.34C670.772 51.08 666.677 56.225 661.497 60.775C649.387 71.555 637.347 76.945 625.377 76.945ZM622.647 74.32C632.587 75.16 643.892 70.015 656.562 58.885C667.482 49.295 672.942 38.865 672.942 27.595C672.942 22.275 671.822 18.705 669.582 16.885C666.152 14.225 662.932 12.615 659.922 12.055C653.412 14.085 646.552 18.53 639.342 25.39C634.022 30.57 629.612 35.855 626.112 41.245C620.372 50.135 617.502 58.36 617.502 65.92C617.502 71.24 619.217 74.04 622.647 74.32ZM724.515 81.145C720.245 81.145 715.17 80.13 709.29 78.1L694.695 72.85C691.405 71.87 688.78 71.38 686.82 71.38C685.49 72.01 683.775 72.745 681.675 73.585C679.645 74.355 677.23 75.23 674.43 76.21C673.59 76.42 672.855 76.525 672.225 76.525C670.545 76.525 669.705 75.895 669.705 74.635C669.705 73.095 670.615 71.625 672.435 70.225C674.115 69.105 675.795 68.405 677.475 68.125C678.875 67.845 680.415 67.67 682.095 67.6C683.845 67.53 685.7 67.565 687.66 67.705C704.04 57.835 714.75 50.905 719.79 46.915C724.55 43.205 728.12 39.88 730.5 36.94C733.79 33.02 735.785 28.82 736.485 24.34C736.555 23.99 736.59 23.675 736.59 23.395C736.66 23.115 736.695 22.835 736.695 22.555C736.695 18.775 734.315 16.885 729.555 16.885C724.935 16.885 719.16 18.46 712.23 21.61C705.93 24.48 700.89 27.595 697.11 30.955C696.83 31.235 696.515 31.375 696.165 31.375C695.465 31.375 695.115 30.955 695.115 30.115C695.115 29.555 695.325 29.135 695.745 28.855C700.575 24.725 706.805 20.945 714.435 17.515C722.835 13.805 729.905 11.95 735.645 11.95C742.085 11.95 745.305 14.435 745.305 19.405C745.305 19.755 745.27 20.14 745.2 20.56C745.2 20.91 745.165 21.295 745.095 21.715C744.255 26.615 741.07 31.865 735.54 37.465C734 39.005 732.005 40.825 729.555 42.925C727.105 45.025 724.235 47.405 720.945 50.065C713.595 55.805 703.41 62.105 690.39 68.965C693.47 69.245 698.93 70.715 706.77 73.375C714.26 75.895 720.385 77.155 725.145 77.155C727.875 77.155 730.43 76.63 732.81 75.58C735.89 74.32 737.43 72.465 737.43 70.015C737.43 67.215 735.295 65.045 731.025 63.505C730.465 63.295 730.185 63.015 730.185 62.665C730.185 61.755 730.78 61.475 731.97 61.825C737.78 63.505 740.685 66.305 740.685 70.225C740.685 73.515 738.725 76.28 734.805 78.52C731.585 80.27 728.155 81.145 724.515 81.145ZM764.566 77.05C757.706 77.05 752.176 76 747.976 73.9C743.426 71.66 741.151 68.51 741.151 64.45C741.151 62.28 741.816 59.97 743.146 57.52C744.896 54.37 748.361 51.675 753.541 49.435C757.951 47.615 761.766 46.705 764.986 46.705C765.826 46.705 766.246 46.985 766.246 47.545C766.246 48.245 765.756 48.595 764.776 48.595C762.536 48.595 759.666 49.645 756.166 51.745C752.246 54.195 749.936 56.645 749.236 59.095C749.096 59.725 748.956 60.355 748.816 60.985C748.746 61.545 748.711 62.105 748.711 62.665C748.711 68.755 752.876 72.535 761.206 74.005C769.326 75.475 777.761 74.215 786.511 70.225C796.311 65.675 802.926 59.13 806.356 50.59C806.846 49.4 807.091 48.21 807.091 47.02C807.091 44.22 805.516 42.155 802.366 40.825C799.636 39.635 796.276 39.04 792.286 39.04C788.156 39.04 784.726 39.565 781.996 40.615C781.366 40.895 780.701 41.035 780.001 41.035C778.741 41.035 778.111 40.44 778.111 39.25C778.111 38.48 778.391 37.78 778.951 37.15C779.511 36.45 780.246 36.1 781.156 36.1C787.176 36.1 792.811 35.085 798.061 33.055C804.781 30.395 808.561 26.65 809.401 21.82C809.471 21.54 809.506 21.295 809.506 21.085C809.506 20.875 809.506 20.665 809.506 20.455C809.506 17.445 807.511 15.94 803.521 15.94C800.021 15.94 795.751 16.885 790.711 18.775C786.231 20.455 782.346 22.345 779.056 24.445C778.776 24.655 778.531 24.76 778.321 24.76C777.831 24.76 777.586 24.305 777.586 23.395C777.586 21.295 778.251 20.105 779.581 19.825C781.191 19.335 783.746 17.445 787.246 14.155C787.666 13.735 788.051 13.595 788.401 13.735C788.751 13.875 788.926 14.12 788.926 14.47C788.926 14.89 788.716 15.31 788.296 15.73C788.086 15.87 787.806 16.15 787.456 16.57C794.946 13.35 801.211 11.74 806.251 11.74C813.111 11.74 816.401 14.925 816.121 21.295C815.771 27.385 809.506 32.32 797.326 36.1C807.896 37.22 813.181 40.93 813.181 47.23C813.181 48.28 813.041 49.26 812.761 50.17C810.661 58.43 804.466 65.15 794.176 70.33C785.146 74.81 775.276 77.05 764.566 77.05Z" fill="#8E4545"/>
</svg>
